<svg width="18" height="14" viewBox="0 0 18 14" fill="none" xmlns="http://www.w3.org/2000/svg">
<path d="M11.5641 0.168929C12.2458 -0.0461264 12.9837 -0.0560676 13.6719 0.140532C14.3602 0.337132 14.9633 0.730163 15.3947 1.26321C16.1053 1.05387 16.8055 0.815984 17.5263 0.606642C17.5164 0.925873 17.4299 1.23909 17.2732 1.52374C17.1165 1.8084 16.8935 2.0574 16.6201 2.25283C16.8726 2.2788 17.1281 2.25115 17.3673 2.17199C17.6064 2.09284 17.8228 1.96427 18 1.79608C17.901 2.2099 17.6999 2.59698 17.4123 2.9271C17.1247 3.25723 16.7585 3.52146 16.3421 3.69918C16.095 9.96991 12.9748 14.1662 5.65332 13.995H5.14874C4.70595 13.995 0.731121 13.5668 0 12.2441C1.75201 12.4899 3.53888 12.0976 4.98398 11.1498C3.95423 10.8644 2.13158 10.7026 1.82265 8.40936C2.2108 8.5434 2.6321 8.57309 3.03776 8.495C1.76087 7.70521 0.339817 7.03913 0.422197 4.99329C0.819634 5.29885 1.3269 5.4551 1.84325 5.43101C1.10183 5.20264 -0.24714 2.30992 0.895881 0.825499C2.82151 2.54781 4.86041 4.17496 8.48512 4.33672C8.71167 2.20525 9.68993 0.777922 11.5641 0.168929Z" fill="#D22856"/>
</svg>
